# xmcd
#
# Track frame offsets: 
#        150
#        19116
#        37078
#        60585
#        79215
#        110890
#        134661
#        155067
#        163486
#        182542
#        197150
#
# Disc length: 3234 seconds
#
# Revision: 0
# Processed by: cddbd v1.5.2PL0 Copyright (c) Steve Scherf et al.
# Submitted via: ExactAudioCopy v0.95a5
#
DISCID=a30ca00b
DTITLE=Taxi Chain - Sadness and the Good Doctor
DYEAR=1999
DGENRE=Blues
TTITLE0=If I Had A Boat
TTITLE1=Girlfriend Said
TTITLE2=Watch TV
TTITLE3=Mrs Macleod's Daughter
TTITLE4=Yippee Yi Yae
TTITLE5=Trailer Park
TTITLE6=Up On Blocks
TTITLE7=Mortley's Medicine
TTITLE8=Bus
TTITLE9=Funk Bummer
TTITLE10=I'm Okay Now
EXTD=
EXTT0=
EXTT1=
EXTT2=
EXTT3=
EXTT4=
EXTT5=
EXTT6=
EXTT7=
EXTT8=
EXTT9=
EXTT10=
PLAYORDER=
